<svg xmlns="http://www.w3.org/2000/svg" xmlns:xlink="http://www.w3.org/1999/xlink" width="80" zoomAndPan="magnify" viewBox="0 0 60 33.749998" height="45" preserveAspectRatio="xMidYMid meet" version="1.0"><defs><g/><clipPath id="5786552d89"><path d="M 52.035156 6.582031 L 56.429688 6.582031 L 56.429688 11.128906 L 52.035156 11.128906 Z M 52.035156 6.582031 " clip-rule="nonzero"/></clipPath><clipPath id="c1c729f33b"><path d="M 53.527344 6.582031 L 54.941406 6.582031 C 55.335938 6.582031 55.714844 6.738281 55.992188 7.019531 C 56.273438 7.296875 56.429688 7.675781 56.429688 8.074219 L 56.429688 9.636719 C 56.429688 10.03125 56.273438 10.410156 55.992188 10.6875 C 55.714844 10.96875 55.335938 11.125 54.941406 11.125 L 53.527344 11.125 C 53.132812 11.125 52.753906 10.96875 52.472656 10.6875 C 52.195312 10.410156 52.035156 10.03125 52.035156 9.636719 L 52.035156 8.074219 C 52.035156 7.675781 52.195312 7.296875 52.472656 7.019531 C 52.753906 6.738281 53.132812 6.582031 53.527344 6.582031 Z M 53.527344 6.582031 " clip-rule="nonzero"/></clipPath></defs><g fill="#000000" fill-opacity="1"><g transform="translate(7.503602, 24.699119)"><g><path d="M 4.28125 0.203125 C 3.25 0.203125 2.390625 -0.0664062 1.703125 -0.609375 C 1.023438 -1.148438 0.6875 -1.953125 0.6875 -3.015625 C 0.6875 -3.828125 0.875 -4.460938 1.25 -4.921875 C 1.632812 -5.378906 2.132812 -5.710938 2.75 -5.921875 C 3.375 -6.140625 4.039062 -6.285156 4.75 -6.359375 C 5.695312 -6.453125 6.367188 -6.550781 6.765625 -6.65625 C 7.171875 -6.757812 7.375 -6.984375 7.375 -7.328125 L 7.375 -7.375 C 7.375 -7.820312 7.234375 -8.164062 6.953125 -8.40625 C 6.679688 -8.644531 6.285156 -8.765625 5.765625 -8.765625 C 5.222656 -8.765625 4.789062 -8.644531 4.46875 -8.40625 C 4.15625 -8.175781 3.945312 -7.882812 3.84375 -7.53125 L 1.078125 -7.75 C 1.273438 -8.738281 1.785156 -9.519531 2.609375 -10.09375 C 3.429688 -10.675781 4.488281 -10.96875 5.78125 -10.96875 C 6.582031 -10.96875 7.332031 -10.835938 8.03125 -10.578125 C 8.738281 -10.328125 9.304688 -9.929688 9.734375 -9.390625 C 10.160156 -8.859375 10.375 -8.160156 10.375 -7.296875 L 10.375 0 L 7.53125 0 L 7.53125 -1.5 L 7.453125 -1.5 C 7.179688 -1 6.785156 -0.585938 6.265625 -0.265625 C 5.742188 0.046875 5.082031 0.203125 4.28125 0.203125 Z M 5.140625 -1.875 C 5.796875 -1.875 6.335938 -2.0625 6.765625 -2.4375 C 7.191406 -2.820312 7.40625 -3.300781 7.40625 -3.875 L 7.40625 -5.015625 C 7.28125 -4.929688 7.09375 -4.859375 6.84375 -4.796875 C 6.601562 -4.742188 6.34375 -4.691406 6.0625 -4.640625 C 5.78125 -4.597656 5.53125 -4.5625 5.3125 -4.53125 C 4.789062 -4.457031 4.367188 -4.304688 4.046875 -4.078125 C 3.722656 -3.859375 3.5625 -3.539062 3.5625 -3.125 C 3.5625 -2.707031 3.707031 -2.394531 4 -2.1875 C 4.300781 -1.976562 4.679688 -1.875 5.140625 -1.875 Z M 5.140625 -1.875 "/></g></g></g><g fill="#000000" fill-opacity="1"><g transform="translate(19.018802, 24.699119)"><g><path d="M 4.203125 -6.25 L 4.203125 0 L 1.203125 0 L 1.203125 -10.828125 L 4.0625 -10.828125 L 4.0625 -8.921875 L 4.1875 -8.921875 C 4.425781 -9.546875 4.828125 -10.039062 5.390625 -10.40625 C 5.953125 -10.78125 6.632812 -10.96875 7.4375 -10.96875 C 8.5625 -10.96875 9.460938 -10.601562 10.140625 -9.875 C 10.828125 -9.144531 11.171875 -8.148438 11.171875 -6.890625 L 11.171875 0 L 8.171875 0 L 8.171875 -6.359375 C 8.179688 -7.015625 8.015625 -7.53125 7.671875 -7.90625 C 7.328125 -8.28125 6.851562 -8.46875 6.25 -8.46875 C 5.644531 -8.46875 5.148438 -8.273438 4.765625 -7.890625 C 4.390625 -7.503906 4.203125 -6.957031 4.203125 -6.25 Z M 4.203125 -6.25 "/></g></g></g><g fill="#000000" fill-opacity="1"><g transform="translate(31.358529, 24.699119)"><g><path d="M 5.1875 0.171875 C 4.363281 0.171875 3.617188 -0.0351562 2.953125 -0.453125 C 2.296875 -0.878906 1.769531 -1.507812 1.375 -2.34375 C 0.988281 -3.175781 0.796875 -4.191406 0.796875 -5.390625 C 0.796875 -6.640625 0.992188 -7.675781 1.390625 -8.5 C 1.796875 -9.320312 2.332031 -9.9375 3 -10.34375 C 3.664062 -10.757812 4.390625 -10.96875 5.171875 -10.96875 C 5.785156 -10.96875 6.296875 -10.863281 6.703125 -10.65625 C 7.109375 -10.457031 7.4375 -10.207031 7.6875 -9.90625 C 7.9375 -9.601562 8.128906 -9.300781 8.265625 -9 L 8.34375 -9 L 8.34375 -14.4375 L 11.34375 -14.4375 L 11.34375 0 L 8.390625 0 L 8.390625 -1.734375 L 8.265625 -1.734375 C 8.117188 -1.429688 7.914062 -1.132812 7.65625 -0.84375 C 7.40625 -0.550781 7.078125 -0.304688 6.671875 -0.109375 C 6.265625 0.078125 5.769531 0.171875 5.1875 0.171875 Z M 6.140625 -2.21875 C 6.859375 -2.21875 7.414062 -2.507812 7.8125 -3.09375 C 8.207031 -3.675781 8.40625 -4.445312 8.40625 -5.40625 C 8.40625 -6.375 8.207031 -7.144531 7.8125 -7.71875 C 7.425781 -8.289062 6.867188 -8.578125 6.140625 -8.578125 C 5.398438 -8.578125 4.832031 -8.285156 4.4375 -7.703125 C 4.050781 -7.117188 3.859375 -6.351562 3.859375 -5.40625 C 3.859375 -4.46875 4.050781 -3.703125 4.4375 -3.109375 C 4.832031 -2.515625 5.398438 -2.21875 6.140625 -2.21875 Z M 6.140625 -2.21875 "/></g></g></g><g fill="#000000" fill-opacity="1"><g transform="translate(43.966056, 24.699119)"><g><path d="M 1.203125 0 L 1.203125 -10.828125 L 4.109375 -10.828125 L 4.109375 -8.9375 L 4.21875 -8.9375 C 4.414062 -9.601562 4.742188 -10.109375 5.203125 -10.453125 C 5.671875 -10.804688 6.210938 -10.984375 6.828125 -10.984375 C 7.117188 -10.984375 7.382812 -10.945312 7.625 -10.875 C 7.875 -10.800781 8.097656 -10.703125 8.296875 -10.578125 L 7.40625 -8.109375 C 7.257812 -8.171875 7.101562 -8.226562 6.9375 -8.28125 C 6.769531 -8.332031 6.582031 -8.359375 6.375 -8.359375 C 5.769531 -8.359375 5.253906 -8.148438 4.828125 -7.734375 C 4.410156 -7.316406 4.203125 -6.78125 4.203125 -6.125 L 4.203125 0 Z M 1.203125 0 "/></g></g></g><g clip-path="url(#5786552d89)"><g clip-path="url(#c1c729f33b)"><path fill="#000000" d="M 52.035156 6.582031 L 56.429688 6.582031 L 56.429688 11.128906 L 52.035156 11.128906 Z M 52.035156 6.582031 " fill-opacity="1" fill-rule="nonzero"/></g></g></svg>